<?xml version="1.0" encoding="utf-8"?>
<!-- Generator: Adobe Illustrator 16.0.0, SVG Export Plug-In . SVG Version: 6.00 Build 0)  -->
<!DOCTYPE svg PUBLIC "-//W3C//DTD SVG 1.1//EN" "http://www.w3.org/Graphics/SVG/1.1/DTD/svg11.dtd">
<svg version="1.1" id="Layer_1" xmlns="http://www.w3.org/2000/svg" xmlns:xlink="http://www.w3.org/1999/xlink" x="0px" y="0px"
	 width="128px" height="128px" viewBox="0 0 128 128" enable-background="new 0 0 128 128" xml:space="preserve">
<g>
	<path d="M97.374,50.625l0.027,0.062c-0.006-0.023-0.013-0.046-0.019-0.07L97.374,50.625z"/>
	<path fill="#ffffff" d="M28.523,70.084c-5.312,2.578-8.211,4.644-8.835,5.774c1.105,0.668,4.648,1.007,10.538,0.583
		c-0.376-1.022-0.715-2.065-1.003-3.138C28.937,72.23,28.709,71.157,28.523,70.084z"/>
	<path fill="#ffffff" d="M97.774,51.55c0.374,1.016,0.711,2.053,0.996,3.118c0.288,1.07,0.515,2.142,0.7,3.213c5.296-2.572,8.161-4.625,8.784-5.755
		C107.155,51.464,103.598,51.139,97.774,51.55z"/>
	<path fill="#ffffff" d="M128,18c0-9.941-8.059-18-18-18c-6.249,0-11.75,3.187-14.978,8.021C85.832,2.917,75.259,0,64,0
		C52.742,0,42.168,2.917,32.978,8.021C29.75,3.187,24.249,0,18,0C8.059,0,0,8.059,0,18c0,6.249,3.187,11.75,8.021,14.978
		C2.917,42.168,0,52.742,0,64c0,35.347,28.654,64,64,64c35.347,0,64-28.653,64-64c0-11.258-2.917-21.832-8.021-31.022
		C124.813,29.75,128,24.249,128,18z M99.885,62.124c-0.073-1.398-0.195-2.816-0.438-4.224c-6.998,3.391-18.176,7.669-33.896,11.881
		c-15.739,4.217-27.569,6.102-35.324,6.66c0.494,1.344,1.06,2.644,1.694,3.894c13.731-1.192,31.599-5.868,34.665-6.69
		c3.066-0.821,20.876-5.705,33.364-11.538c0.885,16.624-9.912,32.172-26.635,36.653c-16.724,4.48-33.848-3.586-41.395-18.425
		c-8.406,0.731-15.265,0.157-16.22-3.408s4.696-7.491,12.343-11.062c-0.885-16.624,9.912-32.172,26.636-36.653
		c16.725-4.481,33.853,3.586,41.396,18.429l0.013,0.03c8.952-0.874,15.153-0.135,16.102,3.401
		C113.146,54.638,107.532,58.554,99.885,62.124z"/>
</g>
</svg>
